<?xml version="1.0" encoding="utf-8"?>
<!-- Generator: Adobe Illustrator 21.0.0, SVG Export Plug-In . SVG Version: 6.00 Build 0)  -->
<svg version="1.1" id="Layer_1" xmlns="http://www.w3.org/2000/svg" xmlns:xlink="http://www.w3.org/1999/xlink" x="0px" y="0px"
	 viewBox="0 0 666 179" style="enable-background:new 0 0 666 179;" xml:space="preserve">
<style type="text/css">
	.st0{fill:#FFFFFF;}
	.st1{fill:#E2E2E2;}
	.st2{font-family:'Roboto-Thin';}
	.st3{font-size:92.7546px;}
</style>
<g>
	<path class="st0" d="M64.3,35.3c3,1.1,5.9,2.2,8.8,3.3c0.8,0.3,1.3,0.3,2-0.3c3.6-3,7.6-5.4,12-7c0.8-0.3,1.1-0.8,1.2-1.6
		c0.5-3.1,1.1-6.2,1.7-9.4c2.9-0.4,5.8-0.9,8.7-1.3c0.3,0,0.8,0.4,1,0.7c1.2,2.4,2.3,4.9,3.4,7.4c0.3,0.8,0.7,1.1,1.6,1.1
		c4.7,0.1,9.3,1,13.8,2.7c0.7,0.3,1.1,0.1,1.6-0.4c1.8-2,3.6-4,5.6-6.2c2.7,1.3,5.3,2.6,8,3.9c0.2,0.1,0.4,0.7,0.4,1.1
		c-0.3,2.9-0.7,5.8-1.2,8.7c-0.1,0.9,0.1,1.4,0.7,2c18.8,17.5,19.2,47,0.7,64.8c-8.2,7.9-18.1,12.1-29.5,12.4
		c-2.9,0.1-5.8-0.3-8.6-0.5c-0.9-0.1-1.3,0.1-1.8,0.9c-7.3,12.8-18.4,19.8-33.2,20.4c-16.8,0.7-31.6-9.3-37.8-25
		c-0.1-0.3-0.3-0.6-0.4-1c-1.6,0.4-3.1,0.7-4.9,1.1c1.9-7.8,3.8-15.4,5.7-23.2c5.2,6.2,10.2,12.1,15.4,18.2
		c-1.8,0.4-3.3,0.8-4.9,1.2c3.5,8.8,13.3,17.1,26.1,16.8c4.5-0.1,8.8-1.3,12.7-3.5c4-2.2,7.3-5.3,9.8-9.1c2.5-3.8,3.9-8,4.4-12.5
		c16.3,8.7,33,2.2,41.1-7.7c8.9-10.9,9.9-26.1,2.3-38.1c-7.4-11.8-21.8-17.5-35.5-14.1c-13.3,3.3-24.4,15.4-24.6,31.8
		C62.6,69.9,54.6,70,46.9,74c-7.7,4-12.4,10.5-14.8,19.2c-0.2-0.3-0.3-0.7-0.5-0.9c-2.3-2.8-4.6-5.5-6.9-8.2
		c-0.5-0.5-0.5-0.9-0.2-1.6c6.1-12.2,15.8-19.6,29.2-22c2.2-0.4,4.5-0.5,6.7-0.7c1.2-2.8,2.5-5.6,3.7-8.4c0.1-0.3-0.1-0.9-0.3-1.2
		c-1.5-2.1-2.9-4.3-4.5-6.4c-0.5-0.7-0.6-1.2,0-1.9C61,39.8,62.6,37.6,64.3,35.3z"/>
	<path class="st1" d="M84.6,134.7c3-2.7,5.9-5.5,8.9-8.2c10.7,7.7,22.2,9.4,34.3,3.6c12.1-5.8,17.8-16.1,18.5-29.5
		c8,3.2,16,3.1,23.7-0.9c7.8-4,12.4-10.5,14.8-19.3c0.2,0.3,0.3,0.7,0.5,1c2.2,2.7,4.4,5.3,6.7,7.9c0.7,0.8,0.7,1.4,0.3,2.3
		c-7.4,14.1-19,21.5-34.9,22.1c-0.9,0-1.1,0.3-1.4,1.1c-5.8,16.3-17.2,26.5-34.2,29.9c-13.7,2.7-26-0.8-36.9-9.6
		C84.8,134.9,84.7,134.8,84.6,134.7C84.6,134.7,84.6,134.6,84.6,134.7z"/>
	<path class="st1" d="M139.1,39.9c19.1-10.4,46.2-2.3,54.9,21.6c1.6-0.4,3.1-0.7,4.9-1.1c-1.9,7.8-3.8,15.3-5.7,23.2
		c-5.2-6.1-10.2-12.1-15.4-18.2c1.7-0.4,3.3-0.8,5.1-1.3c-1.1-1.8-2-3.6-3.1-5.2c-7.4-10.3-20.4-14.2-32.3-9.7
		c-0.8,0.3-1.2,0.3-1.7-0.4C143.6,45.8,141.3,42.9,139.1,39.9z"/>
</g>
<text transform="matrix(1 0 0 1 230.0303 122.271)" class="st0 st2 st3">Cloudify</text>
</svg>
